<svg width="25" height="26" viewBox="0 0 25 26" fill="none" xmlns="http://www.w3.org/2000/svg">
<path d="M22.2656 13C22.2656 13.3108 22.1422 13.6089 21.9224 13.8286C21.7026 14.0484 21.4046 14.1719 21.0938 14.1719H13.6719V21.5938C13.6719 21.9046 13.5484 22.2026 13.3286 22.4224C13.1089 22.6422 12.8108 22.7656 12.5 22.7656C12.1892 22.7656 11.8911 22.6422 11.6714 22.4224C11.4516 22.2026 11.3281 21.9046 11.3281 21.5938V14.1719H3.90625C3.59545 14.1719 3.29738 14.0484 3.07761 13.8286C2.85784 13.6089 2.73438 13.3108 2.73438 13C2.73438 12.6892 2.85784 12.3911 3.07761 12.1714C3.29738 11.9516 3.59545 11.8281 3.90625 11.8281H11.3281V4.40625C11.3281 4.09545 11.4516 3.79738 11.6714 3.57761C11.8911 3.35784 12.1892 3.23438 12.5 3.23438C12.8108 3.23438 13.1089 3.35784 13.3286 3.57761C13.5484 3.79738 13.6719 4.09545 13.6719 4.40625V11.8281H21.0938C21.4046 11.8281 21.7026 11.9516 21.9224 12.1714C22.1422 12.3911 22.2656 12.6892 22.2656 13Z" fill="#B8A3E4"/>
</svg>
